<svg id="Group_27" data-name="Group 27" xmlns="http://www.w3.org/2000/svg" xmlns:xlink="http://www.w3.org/1999/xlink" width="159.586" height="80" viewBox="0 0 159.586 80">
  <defs>
    <clipPath id="clip-path">
      <rect id="Rectangle_7" data-name="Rectangle 7" width="159.586" height="80" fill="#2785c1"/>
    </clipPath>
  </defs>
  <path id="Path_1" data-name="Path 1" d="M122.835,10.627h.065l4.453,21.508h-8.9ZM119.314,0,108.7,49.786h6.307L117.461,37.9h10.884l2.52,11.886h6.371L126.687,0Z" transform="translate(-43.633)" fill="#2785c1"/>
  <g id="Group_4" data-name="Group 4">
    <g id="Group_3" data-name="Group 3" clip-path="url(#clip-path)">
      <path id="Path_2" data-name="Path 2" d="M178.068,30h-6.11V49.786H165.6V0h13.525c10.028,0,12.757,3.994,12.757,13.487v2.98c0,7.359-1.854,11.551-7.378,13.013l7.769,20.306h-6.632Zm.536-5.9c5.836,0,6.907-1.807,6.907-7.834V13.683c0-6.045-1.071-7.834-6.321-7.834h-7.233V24.105Z" transform="translate(-66.473)" fill="#2785c1"/>
      <path id="Path_3" data-name="Path 3" d="M219.607,33.6V0h6.436V33.057c0,7.629.938,11.144,7.089,11.144,6.11,0,7.312-3.516,7.312-11.144V0h6.371V33.6c0,11.606-3.847,16.58-13.617,16.58-9.883,0-13.591-4.974-13.591-16.58" transform="translate(-88.151)" fill="#2785c1"/>
      <path id="Path_4" data-name="Path 4" d="M27.347,36.41V27.821l-7.439-4.293-7.439,4.293V36.41l7.439,4.3Zm-11.7-6.751,4.26-2.46,4.261,2.46v4.919l-4.261,2.461-4.26-2.461Z" transform="translate(-5.005 -9.444)" fill="#2785c1"/>
      <path id="Path_5" data-name="Path 5" d="M56.418,14.072,41.51,5.469,39.6,6.576,28.206,0,16.821,6.576,14.9,5.469,0,14.072v17.2l4.074,2.356L0,36.225V77.416L6.325,64.708l6.787,3.916L7.753,79.732H48.672L43.3,68.624l6.789-3.916,6.328,12.708V36.225l-4.073-2.6,4.073-2.356ZM28.206,32.191l6.06,3.493-6.06,3.493-6.052-3.493Zm0-28.521,8.223,4.74-8.223,4.741L20.8,8.876,20,8.411ZM3.183,15.905,14.9,9.139l11.719,6.767V29.437L14.9,36.206,3.183,29.437Zm0,22.062,3.994-2.549,7.9,4.552L3.185,63.891Zm9.633,38.581,3.059-6.33,10.745,6.208v.122Zm30.779,0H29.8v-.122l10.745-6.208ZM28.206,73.672,7.743,61.855l11.9-23.946,8.56,4.94,8.561-4.94L48.673,61.855Zm25.032-35.7V63.891l-11.9-23.932,7.9-4.54Zm0-8.531L41.51,36.206,29.8,29.437V15.905L41.51,9.139l11.728,6.767Z" fill="#2785c1"/>
      <path id="Path_6" data-name="Path 6" d="M56.919,27.82v8.59L64.358,40.7,71.8,36.41V27.82l-7.439-4.295Zm11.708,6.758L64.358,37.03l-4.251-2.452V29.659L64.358,27.2l4.269,2.461Z" transform="translate(-22.848 -9.443)" fill="#2785c1"/>
      <path id="Path_7" data-name="Path 7" d="M25.668,37.416V34.71l-2.342-1.349L20.984,34.71v2.706l2.342,1.348Z" transform="translate(-8.423 -13.391)" fill="#2785c1"/>
      <path id="Path_8" data-name="Path 8" d="M67.788,33.362l2.342,1.348v2.706l-2.342,1.349-2.324-1.349V34.71Z" transform="translate(-26.277 -13.392)" fill="#2785c1"/>
      <path id="Path_9" data-name="Path 9" d="M119.165,0h7.38l10.56,49.837h-6.378L128.2,37.94H117.31l-2.457,11.9H108.54Zm8.047,32.168-4.457-21.53h-.065L118.3,32.168Z" transform="translate(-43.568)" fill="#2785c1"/>
      <path id="Path_10" data-name="Path 10" d="M177.979,30.032h-6.118v19.8H165.5V0h13.538c10.038,0,12.77,4,12.77,13.5v2.983c0,7.366-1.855,11.562-7.385,13.027L192.2,49.837H185.56M178.515,24.13c5.842,0,6.914-1.808,6.914-7.842V13.7c0-6.051-1.072-7.842-6.327-7.842h-7.241V24.13Z" transform="translate(-66.432 0)" fill="#2785c1"/>
      <path id="Path_11" data-name="Path 11" d="M219.56,33.632V0H226V33.092c0,7.636.939,11.155,7.1,11.155,6.117,0,7.32-3.519,7.32-11.155V0H246.8V33.632c0,11.618-3.851,16.6-13.631,16.6-9.894,0-13.6-4.98-13.6-16.6" transform="translate(-88.132)" fill="#2785c1"/>
      <path id="Path_12" data-name="Path 12" d="M107.091,111.3l4.059-.47a4.655,4.655,0,0,0,.772,2.147,2.5,2.5,0,0,0,2.281,1.141,2.375,2.375,0,0,0,2.617-2.584v-.168c0-1.812-.6-2.483-3.187-3.556l-1.376-.57c-3.456-1.376-4.965-3.22-4.965-6.576v-.3c0-3.791,2.55-6.173,6.81-6.173a6.842,6.842,0,0,1,4.5,1.342,6.67,6.67,0,0,1,2.382,5.1l-4.026.47a4.666,4.666,0,0,0-.738-2.248,2.49,2.49,0,0,0-2.147-.973,2.221,2.221,0,0,0-2.482,2.449v.168c0,1.577.7,2.315,3.019,3.255l1.408.6c3.758,1.51,5.1,2.919,5.1,6.609v.436c0,3.925-2.483,6.408-6.877,6.408a6.861,6.861,0,0,1-5.4-2.047,7.369,7.369,0,0,1-1.744-4.462" transform="translate(-42.987 -37.808)" fill="#2785c1"/>
      <path id="Path_13" data-name="Path 13" d="M140.662,108.985v-5.972c0-3.188.538-5.133,1.778-6.576a8.7,8.7,0,0,1,11.675,0c1.241,1.443,1.778,3.388,1.778,6.576v5.972c0,3.12-.538,5.1-1.778,6.541a8.608,8.608,0,0,1-11.675,0c-1.241-1.442-1.778-3.422-1.778-6.541m10.837.805v-7.582a4.837,4.837,0,0,0-.839-3.187,3.49,3.49,0,0,0-4.764,0,4.834,4.834,0,0,0-.839,3.187v7.582a4.73,4.73,0,0,0,.839,3.153,3.491,3.491,0,0,0,4.764,0,4.734,4.734,0,0,0,.839-3.153" transform="translate(-56.462 -37.808)" fill="#2785c1"/>
      <path id="Path_14" data-name="Path 14" d="M177.823,94.638h4.361V114h6.609v3.724h-10.97Z" transform="translate(-71.379 -37.988)" fill="#2785c1"/>
      <path id="Path_15" data-name="Path 15" d="M216.166,115.673l-.47-2.885h-5.368c-.369,2.181-.6,3.824-.772,4.932h-4.5c1.376-7.75,2.885-15.466,4.53-23.082h6.777q2.415,10.87,4.63,23.082h-4.529Zm-1.074-6.509c-.1-.436-.134-.772-.168-1.007l-.3-1.576c-.436-2.617-.94-5.3-1.51-8.018h-.335l-.235,1.207-.536,2.986c-.268,1.443-.469,2.718-.638,3.825l-.168.872c-.034.369-.135.939-.268,1.711Z" transform="translate(-82.312 -37.988)" fill="#2785c1"/>
      <path id="Path_16" data-name="Path 16" d="M252.274,117.719c-.705-2.047-1.711-4.9-3.019-8.487h-2.449v8.487h-4.361V94.638h6.576c5,0,7.414,1.778,7.414,6.609v1.309c0,3.019-1.073,5-3.187,5.938,1.443,3.422,2.651,6.509,3.657,9.226Zm-3.389-12.077c2.147,0,3.154-.906,3.154-3.22v-1.007c0-2.315-.973-3.187-3.154-3.187h-2.08v7.414Z" transform="translate(-97.318 -37.988)" fill="#2785c1"/>
    </g>
  </g>
</svg>
